<svg xmlns="http://www.w3.org/2000/svg" width="41" height="13" fill="none" viewBox="0 0 41 13"><path fill="#4285F4" d="M1.043 5.03c0-2.772 2.323-5.018 5.095-5.018 1.53 0 2.619.602 3.441 1.386l-.975.965a3.46 3.46 0 0 0-2.466-.984c-2.017 0-3.594 1.625-3.594 3.642S4.12 8.663 6.138 8.663c1.31 0 2.055-.526 2.533-1.004.392-.392.65-.956.746-1.72h-3.28V4.57h4.618c.048.249.076.536.076.86 0 1.033-.277 2.304-1.185 3.203-.889.918-2.017 1.405-3.508 1.405-2.772 0-5.095-2.246-5.095-5.009Z"/><path fill="#EA4335" d="M14.553 3.585c-1.788 0-3.24 1.357-3.24 3.231 0 1.864 1.452 3.23 3.24 3.23 1.787 0 3.24-1.366 3.24-3.23 0-1.874-1.453-3.23-3.24-3.23Zm0 5.181c-.975 0-1.826-.803-1.826-1.96 0-1.166.841-1.96 1.826-1.96.975 0 1.826.794 1.826 1.96 0 1.157-.851 1.96-1.826 1.96Z"/><path fill="#FBBC05" d="M21.627 3.585c-1.787 0-3.24 1.357-3.24 3.231 0 1.864 1.453 3.23 3.24 3.23 1.788 0 3.24-1.366 3.24-3.23 0-1.874-1.452-3.23-3.24-3.23Zm0 5.181c-.975 0-1.826-.803-1.826-1.96 0-1.166.842-1.96 1.826-1.96.985 0 1.826.794 1.826 1.96 0 1.157-.85 1.96-1.826 1.96Z"/><path fill="#4285F4" d="M30.303 3.774V4.3h-.047c-.316-.382-.928-.726-1.702-.726-1.615 0-3.097 1.414-3.097 3.24 0 1.807 1.482 3.222 3.097 3.222.774 0 1.386-.345 1.702-.737h.047v.469c0 1.233-.66 1.893-1.72 1.893-.87 0-1.405-.622-1.625-1.147l-1.233.516c.353.86 1.3 1.911 2.867 1.911 1.664 0 3.069-.975 3.069-3.364V3.774h-1.358Zm-1.625 4.99c-.975 0-1.797-.822-1.797-1.95 0-1.137.822-1.969 1.797-1.969.966 0 1.721.832 1.721 1.97.01 1.137-.755 1.95-1.72 1.95Z"/><path fill="#34A853" d="M34.047 9.848h-1.414V.356h1.414v9.492Z"/><path fill="#EA4335" d="M37.94 8.766c-.726 0-1.233-.335-1.567-.975l4.32-1.788-.143-.363c-.268-.726-1.09-2.055-2.762-2.055-1.664 0-3.05 1.31-3.05 3.231 0 1.807 1.367 3.23 3.203 3.23 1.481 0 2.332-.907 2.695-1.433l-1.1-.736c-.372.535-.869.889-1.596.889Zm-.105-3.938c.564 0 1.042.277 1.195.688l-2.887 1.195c-.038-1.243.966-1.883 1.692-1.883Z"/></svg>